<svg width="883" height="917" viewBox="0 0 883 917" fill="none" xmlns="http://www.w3.org/2000/svg">
<path d="M307.621 688.766C320.702 688.766 331.306 678.328 331.306 665.453C331.306 652.577 320.702 642.14 307.621 642.14C294.539 642.14 283.935 652.577 283.935 665.453C283.935 678.328 294.539 688.766 307.621 688.766Z" fill="white"/>
<path d="M225.594 649.29H30.8357C24.0645 649.29 16.9211 648.911 12.7839 646.656L0 722.987H0.758552C24.8163 680.878 37.9932 658.695 80.0547 658.695H111.263V867.368C111.263 892.191 105.995 904.21 87.9496 911.733V912.484H168.411V911.733C150.359 904.21 145.098 892.184 145.098 867.368V658.695H176.306C218.416 658.695 231.572 680.878 255.637 722.987H256.388L243.605 646.663C239.502 648.911 232.358 649.29 225.594 649.29Z" fill="white"/>
<path d="M326.424 871.498V729.751H270.027V730.503C288.072 738.019 293.34 749.3 293.34 770.73V871.498C293.34 896.322 289.955 904.203 271.91 911.726V912.477H347.855V911.726C329.81 904.203 326.424 896.308 326.424 871.498Z" fill="white"/>
<path d="M433.763 897.06C416.849 897.06 407.823 884.648 407.823 860.217V739.549H464.599L466.475 729.779H407.823V665.067H404.817C399.549 702.301 379.994 730.862 348.42 737.254V739.508H374.739V861.328C374.739 897.797 393.164 916.222 422.489 916.222C456.325 916.222 469.86 889.53 472.867 853.433H469.86C464.972 881.648 452.188 897.06 433.763 897.06Z" fill="white"/>
<path d="M638.857 870.74C638.857 847.806 639.988 822.99 639.988 789.534C639.988 744.79 610.663 725.987 561.782 725.987C523.058 725.987 496.738 747.797 496.738 772.234C496.738 789.534 508.77 799.684 524.181 799.684C535.09 799.684 543.737 794.044 545.612 782.763C544.087 783.492 542.421 783.878 540.73 783.894C530.201 783.894 523.43 775.619 523.43 763.966C523.43 747.417 533.959 733.137 561.782 733.137C592.611 733.137 605.395 756.443 605.395 783.894V805.324L576.821 810.585C532.077 818.86 489.595 828.258 489.595 868.506C489.595 900.093 513.28 915.132 542.985 915.132C574.566 915.132 601.637 890.688 605.774 864.369C605.774 868.506 606.526 880.917 606.526 882.42C608.408 902.348 619.682 915.518 639.988 915.518C655.399 915.518 667.432 908.754 673.824 899.728V898.977C670.405 900.981 666.506 902.02 662.543 901.983C646.753 901.948 638.857 891.419 638.857 870.74ZM604.643 843.669C603.892 878.642 580.579 898.569 556.893 898.569C538.848 898.569 524.933 889.543 524.933 864.727C524.933 838.035 542.985 824.5 580.206 817.357L605.395 812.467L604.643 843.669Z" fill="white"/>
<path d="M861.59 871.498V791.41C861.59 748.176 837.525 725.987 802.938 725.987C770.599 725.987 746.914 746.672 736.743 782.011V729.751H680.347V730.503C698.392 738.019 703.66 749.3 703.66 770.73V871.498C703.66 896.322 700.274 904.203 682.222 911.726V912.477H758.174V911.726C740.129 904.203 736.743 896.308 736.743 871.498V816.225C736.743 773.364 758.553 744.79 788.631 744.79C818.329 744.79 828.486 767.724 828.486 794.436V871.519C828.486 896.342 825.1 904.224 807.055 911.746V912.498H883V911.746C864.976 904.203 861.59 896.308 861.59 871.498Z" fill="white"/>
<path d="M433.973 563.747H453.28C490.249 563.641 525.673 548.909 551.814 522.768C577.955 496.627 592.688 461.203 592.793 424.234V139.513C592.688 102.544 577.955 67.1195 551.814 40.9786C525.673 14.8377 490.249 0.105521 453.28 0H433.973C397.005 0.105521 361.58 14.8377 335.439 40.9786C309.299 67.1195 294.566 102.544 294.46 139.513V424.234C294.566 461.203 309.299 496.627 335.439 522.768C361.58 548.909 397.005 563.641 433.973 563.747ZM303.652 139.513C303.759 104.983 317.524 71.8968 341.941 47.48C366.358 23.0632 399.443 9.2988 433.973 9.1915H453.28C487.811 9.2988 520.896 23.0632 545.313 47.48C569.73 71.8968 583.494 104.983 583.602 139.513V424.234C583.494 458.764 569.73 491.85 545.313 516.267C520.896 540.684 487.811 554.448 453.28 554.555H433.973C399.443 554.448 366.358 540.684 341.941 516.267C317.524 491.85 303.759 458.764 303.652 424.234V139.513Z" fill="white"/>
<path d="M435.304 533.456H451.97C515.952 533.456 568.301 478.369 568.301 411.037V152.71C568.301 85.3776 515.952 30.2909 451.97 30.2909H435.304C371.323 30.2909 318.966 85.3776 318.966 152.71V411.037C318.966 478.369 371.323 533.456 435.304 533.456ZM501.837 184.353C503.712 187.966 503.334 191.703 502.43 195.516C501.718 198.514 500.95 201.502 500.127 204.48C499.437 207.059 498.796 209.17 496.852 211.1C493.707 214.217 489.101 215.589 484.785 215.927C473.918 216.851 462.623 213.858 452.274 210.99C452.274 210.99 453.025 205.77 463.147 193.703C468.105 187.787 473.366 181.209 480.503 177.706C488.267 173.92 497.686 176.355 501.837 184.353ZM441.979 133.859C454.997 133.783 452.632 135.513 463.837 141.512C475.042 147.511 475.904 154.848 475.904 154.848C478.427 171.018 465.195 182.181 457.204 192.165C449.619 201.632 447.895 206.287 447.895 206.287C447.128 205.37 446.287 204.519 445.378 203.742L451.177 187.883C451.33 187.413 451.294 186.902 451.077 186.458C450.861 186.013 450.48 185.67 450.016 185.501C449.551 185.331 449.039 185.348 448.587 185.548C448.135 185.748 447.778 186.116 447.592 186.573L444.468 195.11L445.268 180.202C445.279 179.705 445.097 179.224 444.759 178.859C444.421 178.495 443.955 178.277 443.458 178.251C442.962 178.225 442.476 178.393 442.102 178.72C441.728 179.047 441.495 179.507 441.455 180.002L440.765 193.275L436.856 176.216C436.8 175.972 436.696 175.741 436.55 175.537C436.405 175.332 436.221 175.158 436.008 175.025C435.795 174.892 435.559 174.802 435.311 174.76C435.064 174.719 434.811 174.726 434.567 174.782C434.322 174.838 434.091 174.942 433.887 175.088C433.682 175.233 433.508 175.417 433.375 175.63C433.242 175.842 433.152 176.079 433.11 176.327C433.069 176.574 433.076 176.827 433.132 177.071L438.249 199.371C437.132 198.884 435.979 198.483 434.801 198.172C434.298 195.896 433.236 193.662 432.394 191.496C431.236 188.504 430.16 185.429 428.823 182.533C425.913 176.223 421.203 170.569 420.279 163.481C418.231 147.67 428.961 133.941 441.979 133.859ZM447.185 211.693C438.545 224.946 422.686 222.581 422.686 222.581C391.657 217.754 394.098 199.888 394.098 199.888C397.345 202.398 404.11 205.184 412.026 203.529C419.941 201.874 422.203 201.867 422.203 201.867C439.4 202.108 447.185 211.693 447.185 211.693ZM384.886 167.687C391.436 160.971 405.475 158.392 411.508 167.549C413.391 170.397 415.094 173.32 417.087 176.092C419.369 179.271 421.417 182.74 423.603 186.201C425.662 189.623 427.177 193.345 428.092 197.234L428.133 197.378C427.775 197.296 425.547 197.075 425.203 197.047C423.403 196.971 421.601 196.992 419.804 197.11C414.791 197.158 409.757 198.013 404.744 197.434C400.419 196.882 396.233 195.53 392.401 193.448C388.644 191.462 384.582 188.938 382.659 184.973C380.176 179.912 380.955 171.714 384.886 167.687ZM348.871 289.831L358.325 233.42C361.38 235.088 366.661 235.364 371.66 235.364H515.614C520.613 235.364 525.895 235.088 528.95 233.42L538.396 289.831H537.844C520.055 258.705 510.332 242.308 479.234 242.308H452.777V355.936L452.963 354.819C454.928 343.097 456.956 330.975 463.665 320.756C470.105 310.93 481.027 303.518 492.446 306.538C494.57 304.995 497.193 304.299 499.803 304.586C502.413 304.873 504.822 306.122 506.56 308.089L510.049 312.047C510.356 312.393 510.591 312.795 510.741 313.232C510.892 313.668 510.954 314.13 510.925 314.591C510.896 315.051 510.776 315.502 510.573 315.916C510.369 316.331 510.086 316.701 509.739 317.005C507.641 318.855 504.895 319.797 502.103 319.622C499.311 319.447 496.703 318.171 494.852 316.074L491.363 312.123C491.171 311.902 491.009 311.656 490.881 311.392C490.587 310.696 490.489 309.934 490.598 309.186C480.944 307.345 471.732 313.875 466.14 322.383C459.782 332.085 457.804 343.89 455.887 355.309L455.68 356.55C454.694 362.438 453.728 368.541 452.777 374.981V377.58C455.337 370.111 459.06 363.092 463.809 356.784C463.686 356.496 463.603 356.192 463.561 355.881C463.218 353.105 463.99 350.305 465.708 348.097C467.426 345.89 469.95 344.453 472.725 344.104L477.959 343.414C478.884 343.299 479.817 343.556 480.553 344.129C481.289 344.702 481.767 345.543 481.882 346.469C482.227 349.244 481.457 352.044 479.74 354.252C478.023 356.46 475.5 357.896 472.725 358.246L467.492 358.901C467.201 358.939 466.907 358.939 466.616 358.901C459.113 368.849 454.336 380.583 452.756 392.943V396.522C452.756 414.863 456.645 423.752 469.995 429.309L473.394 429.868H417.315L413.922 429.309C427.264 423.752 434.546 414.863 434.546 396.522V358.646L432.76 329.541C431.478 311.16 423.164 293.979 409.543 281.57C409.265 281.668 408.976 281.728 408.682 281.75L403.42 282.073C400.628 282.243 397.883 281.298 395.787 279.445C393.691 277.593 392.417 274.984 392.243 272.192C392.214 271.731 392.276 271.268 392.426 270.831C392.576 270.394 392.811 269.99 393.117 269.644C393.423 269.297 393.795 269.014 394.21 268.811C394.626 268.609 395.078 268.49 395.539 268.462L400.8 268.138C403.593 267.97 406.338 268.917 408.433 270.77C410.529 272.624 411.803 275.234 411.977 278.026C411.994 278.336 411.968 278.647 411.902 278.95C423.223 289.271 431.124 302.803 434.546 317.736V242.287H408.088C376.963 242.287 367.234 258.684 349.478 289.81L348.871 289.831Z" fill="white"/>
</svg>
